<mxfile host="app.diagrams.net" modified="2020-09-01T01:03:01.646Z" agent="5.0 (Macintosh; Intel Mac OS X 10_15_3) AppleWebKit/537.36 (KHTML, like Gecko) Chrome/84.0.4147.135 Safari/537.36" etag="0GKpUOQAqWQ_UH_TkAAQ" version="13.6.5" type="github">
  <diagram id="k5ysXUYID-QW4RiTL8Hw" name="Page-1">
    <mxGraphModel dx="1298" dy="736" grid="1" gridSize="10" guides="1" tooltips="1" connect="1" arrows="1" fold="1" page="1" pageScale="1" pageWidth="827" pageHeight="1500" math="0" shadow="0">
      <root>
        <mxCell id="0" />
        <mxCell id="1" parent="0" />
        <mxCell id="y-2H_7BcOOzhHPECvJK4-1" value="" style="rounded=0;whiteSpace=wrap;html=1;fillColor=#fff2cc;strokeColor=#d6b656;" vertex="1" parent="1">
          <mxGeometry x="100" y="190" width="370" height="100" as="geometry" />
        </mxCell>
        <mxCell id="y-2H_7BcOOzhHPECvJK4-2" value="弹幕1" style="rounded=0;whiteSpace=wrap;html=1;fillColor=#dae8fc;strokeColor=#6c8ebf;" vertex="1" parent="1">
          <mxGeometry x="110" y="210" width="120" height="60" as="geometry" />
        </mxCell>
        <mxCell id="y-2H_7BcOOzhHPECvJK4-3" value="弹幕2" style="rounded=0;whiteSpace=wrap;html=1;fillColor=#dae8fc;strokeColor=#6c8ebf;" vertex="1" parent="1">
          <mxGeometry x="240" y="210" width="120" height="60" as="geometry" />
        </mxCell>
        <mxCell id="y-2H_7BcOOzhHPECvJK4-9" value="" style="rounded=0;whiteSpace=wrap;html=1;fillColor=#fff2cc;strokeColor=#d6b656;" vertex="1" parent="1">
          <mxGeometry x="100" y="330" width="370" height="100" as="geometry" />
        </mxCell>
        <mxCell id="y-2H_7BcOOzhHPECvJK4-10" value="弹幕1" style="rounded=0;whiteSpace=wrap;html=1;fillColor=#dae8fc;strokeColor=#6c8ebf;" vertex="1" parent="1">
          <mxGeometry x="110" y="350" width="120" height="60" as="geometry" />
        </mxCell>
        <mxCell id="y-2H_7BcOOzhHPECvJK4-11" value="弹幕2" style="rounded=0;whiteSpace=wrap;html=1;fillColor=#dae8fc;strokeColor=#6c8ebf;" vertex="1" parent="1">
          <mxGeometry x="240" y="350" width="120" height="60" as="geometry" />
        </mxCell>
        <mxCell id="y-2H_7BcOOzhHPECvJK4-13" value="弹幕3" style="rounded=0;whiteSpace=wrap;html=1;fillColor=#dae8fc;strokeColor=#6c8ebf;" vertex="1" parent="1">
          <mxGeometry x="370" y="350" width="120" height="60" as="geometry" />
        </mxCell>
        <mxCell id="y-2H_7BcOOzhHPECvJK4-14" value="有空闲位置，加入新的弹幕" style="text;html=1;strokeColor=none;fillColor=none;align=center;verticalAlign=middle;whiteSpace=wrap;rounded=0;" vertex="1" parent="1">
          <mxGeometry x="550" y="230" width="220" height="20" as="geometry" />
        </mxCell>
        <mxCell id="y-2H_7BcOOzhHPECvJK4-15" value="无空闲位置" style="text;html=1;strokeColor=none;fillColor=none;align=center;verticalAlign=middle;whiteSpace=wrap;rounded=0;" vertex="1" parent="1">
          <mxGeometry x="550" y="360" width="140" height="20" as="geometry" />
        </mxCell>
        <mxCell id="y-2H_7BcOOzhHPECvJK4-16" value="&lt;font style=&quot;font-size: 16px&quot;&gt;轨道1&lt;/font&gt;" style="text;html=1;strokeColor=none;fillColor=none;align=center;verticalAlign=middle;whiteSpace=wrap;rounded=0;" vertex="1" parent="1">
          <mxGeometry x="60" y="160" width="120" height="20" as="geometry" />
        </mxCell>
        <mxCell id="y-2H_7BcOOzhHPECvJK4-17" value="&lt;span style=&quot;font-size: 16px&quot;&gt;轨道2&lt;/span&gt;" style="text;html=1;strokeColor=none;fillColor=none;align=center;verticalAlign=middle;whiteSpace=wrap;rounded=0;" vertex="1" parent="1">
          <mxGeometry x="60" y="300" width="120" height="20" as="geometry" />
        </mxCell>
      </root>
    </mxGraphModel>
  </diagram>
</mxfile>
